<svg width="32" height="30" viewBox="0 0 32 30" fill="none" xmlns="http://www.w3.org/2000/svg">
<mask id="path-1-inside-1" fill="white">
<path fill-rule="evenodd" clip-rule="evenodd" d="M29.6348 12.6941C29.0812 10.9903 27.6036 9.5127 24.6485 6.55758L23.4424 5.35151C20.4873 2.39639 19.0097 0.918824 17.3059 0.365222C15.8072 -0.121741 14.1928 -0.12174 12.6941 0.365222C10.9903 0.918824 9.5127 2.39639 6.55757 5.35151L5.35151 6.55757C2.39639 9.5127 0.918824 10.9903 0.365222 12.6941C-0.121741 14.1928 -0.121741 15.8072 0.365222 17.3059C0.918824 19.0097 2.39639 20.4873 5.35151 23.4424L6.55757 24.6485C9.5127 27.6036 10.9903 29.0812 12.6941 29.6348C14.1928 30.1217 15.8072 30.1217 17.3059 29.6348C19.0097 29.0812 20.4873 27.6036 23.4424 24.6485L24.6485 23.4424C27.6036 20.4873 29.0812 19.0097 29.6348 17.3059C30.1217 15.8072 30.1217 14.1928 29.6348 12.6941Z"/>
</mask>
<path d="M24.6485 6.55758L22.8945 8.31152L24.6485 6.55758ZM29.6348 12.6941L27.2757 13.4606L29.6348 12.6941ZM23.4424 5.35151L25.1964 3.59757L25.1964 3.59757L23.4424 5.35151ZM17.3059 0.365222L16.5394 2.72427V2.72427L17.3059 0.365222ZM12.6941 0.365222L11.9276 -1.99382L11.9276 -1.99382L12.6941 0.365222ZM6.55757 5.35151L4.80363 3.59757L6.55757 5.35151ZM5.35151 6.55757L7.10545 8.31152L7.10545 8.31151L5.35151 6.55757ZM0.365222 12.6941L2.72427 13.4606L2.72427 13.4606L0.365222 12.6941ZM0.365222 17.3059L2.72427 16.5394H2.72427L0.365222 17.3059ZM5.35151 23.4424L7.10545 21.6885L7.10545 21.6885L5.35151 23.4424ZM6.55757 24.6485L4.80363 26.4024H4.80363L6.55757 24.6485ZM12.6941 29.6348L11.9276 31.9938L12.6941 29.6348ZM17.3059 29.6348L16.5394 27.2757L17.3059 29.6348ZM23.4424 24.6485L25.1964 26.4024L25.1964 26.4024L23.4424 24.6485ZM24.6485 23.4424L22.8945 21.6885L22.8945 21.6885L24.6485 23.4424ZM29.6348 17.3059L31.9938 18.0724L29.6348 17.3059ZM22.8945 8.31152C24.4011 9.81802 25.4241 10.8438 26.1513 11.7004C26.8596 12.5348 27.1404 13.0441 27.2757 13.4606L31.9938 11.9276C31.5755 10.6402 30.8407 9.55887 29.9331 8.48978C29.0444 7.44284 27.851 6.25226 26.4024 4.80364L22.8945 8.31152ZM21.6885 7.10545L22.8945 8.31152L26.4024 4.80364L25.1964 3.59757L21.6885 7.10545ZM16.5394 2.72427C16.9559 2.85958 17.4652 3.14036 18.2996 3.84874C19.1562 4.57592 20.182 5.59895 21.6885 7.10546L25.1964 3.59757C23.7477 2.14895 22.5572 0.955638 21.5102 0.066855C20.4411 -0.84073 19.3598 -1.57554 18.0724 -1.99382L16.5394 2.72427ZM13.4606 2.72427C14.4611 2.39917 15.5389 2.39917 16.5394 2.72427L18.0724 -1.99382C16.0755 -2.64266 13.9245 -2.64265 11.9276 -1.99382L13.4606 2.72427ZM8.31152 7.10545C9.81802 5.59895 10.8438 4.57592 11.7004 3.84874C12.5348 3.14036 13.0441 2.85958 13.4606 2.72427L11.9276 -1.99382C10.6402 -1.57554 9.55887 -0.840732 8.48978 0.0668537C7.44284 0.955636 6.25226 2.14895 4.80363 3.59757L8.31152 7.10545ZM7.10545 8.31151L8.31152 7.10545L4.80363 3.59757L3.59757 4.80363L7.10545 8.31151ZM2.72427 13.4606C2.85958 13.0441 3.14036 12.5348 3.84874 11.7004C4.57592 10.8438 5.59895 9.81802 7.10545 8.31152L3.59757 4.80363C2.14895 6.25225 0.955637 7.44284 0.066854 8.48978C-0.840731 9.55886 -1.57554 10.6402 -1.99382 11.9276L2.72427 13.4606ZM2.72427 16.5394C2.39917 15.5389 2.39917 14.4611 2.72427 13.4606L-1.99382 11.9276C-2.64265 13.9245 -2.64265 16.0755 -1.99382 18.0724L2.72427 16.5394ZM7.10545 21.6885C5.59895 20.182 4.57592 19.1562 3.84874 18.2996C3.14036 17.4652 2.85958 16.9559 2.72427 16.5394L-1.99382 18.0724C-1.57554 19.3598 -0.840732 20.4411 0.0668534 21.5102C0.955636 22.5572 2.14895 23.7477 3.59757 25.1964L7.10545 21.6885ZM8.31151 22.8945L7.10545 21.6885L3.59757 25.1964L4.80363 26.4024L8.31151 22.8945ZM13.4606 27.2757C13.0441 27.1404 12.5348 26.8596 11.7004 26.1513C10.8438 25.4241 9.81802 24.4011 8.31151 22.8945L4.80363 26.4024C6.25225 27.851 7.44284 29.0444 8.48978 29.9331C9.55886 30.8407 10.6402 31.5755 11.9276 31.9938L13.4606 27.2757ZM16.5394 27.2757C15.5389 27.6008 14.4611 27.6008 13.4606 27.2757L11.9276 31.9938C13.9245 32.6427 16.0755 32.6427 18.0724 31.9938L16.5394 27.2757ZM21.6885 22.8945C20.182 24.4011 19.1562 25.4241 18.2996 26.1513C17.4652 26.8596 16.9559 27.1404 16.5394 27.2757L18.0724 31.9938C19.3598 31.5755 20.4411 30.8407 21.5102 29.9331C22.5572 29.0444 23.7477 27.8511 25.1964 26.4024L21.6885 22.8945ZM22.8945 21.6885L21.6885 22.8946L25.1964 26.4024L26.4024 25.1964L22.8945 21.6885ZM27.2757 16.5394C27.1404 16.9559 26.8596 17.4652 26.1513 18.2996C25.4241 19.1562 24.4011 20.182 22.8945 21.6885L26.4024 25.1964C27.851 23.7477 29.0444 22.5572 29.9331 21.5102C30.8407 20.4411 31.5755 19.3598 31.9938 18.0724L27.2757 16.5394ZM27.2757 13.4606C27.6008 14.4611 27.6008 15.5389 27.2757 16.5394L31.9938 18.0724C32.6427 16.0755 32.6427 13.9245 31.9938 11.9276L27.2757 13.4606Z" fill="#00B956" mask="url(#path-1-inside-1)"/>
<path d="M29.3449 6.77828C30.3188 5.80434 30.3188 4.22528 29.3449 3.25134C28.3709 2.2774 26.7918 2.2774 25.8179 3.25134L15.0444 14.0249L11.793 10.7735C10.8191 9.7996 9.24005 9.7996 8.26611 10.7735C7.29217 11.7475 7.29217 13.3265 8.26611 14.3005L13.2809 19.3153C14.2548 20.2892 15.8339 20.2892 16.8078 19.3153L29.3449 6.77828Z" fill="#1939DE" stroke="white" stroke-width="2.48045" stroke-linecap="round" stroke-linejoin="round"/>
</svg>
