<svg width="26" height="24" viewBox="0 0 26 24" fill="none" xmlns="http://www.w3.org/2000/svg">
<mask id="path-1-inside-1" fill="white">
<path fill-rule="evenodd" clip-rule="evenodd" d="M23.7078 10.1553C23.2649 8.79221 22.0829 7.61016 19.7188 5.24606L18.7539 4.28121C16.3898 1.91711 15.2078 0.73506 13.8447 0.292178C12.6458 -0.0973928 11.3542 -0.0973923 10.1553 0.292178C8.79221 0.73506 7.61016 1.91711 5.24606 4.28121L4.28121 5.24606C1.91711 7.61016 0.735059 8.79221 0.292178 10.1553C-0.0973925 11.3542 -0.0973926 12.6458 0.292178 13.8447C0.735059 15.2078 1.91711 16.3898 4.28121 18.7539L5.24606 19.7188C7.61016 22.0829 8.79221 23.2649 10.1553 23.7078C11.3542 24.0974 12.6458 24.0974 13.8447 23.7078C15.2078 23.2649 16.3898 22.0829 18.7539 19.7188L19.7188 18.7539C22.0829 16.3898 23.2649 15.2078 23.7078 13.8447C24.0974 12.6458 24.0974 11.3542 23.7078 10.1553Z"/>
</mask>
<path d="M19.7188 5.24606L18.3156 6.64921V6.64921L19.7188 5.24606ZM23.7078 10.1553L21.8206 10.7685L23.7078 10.1553ZM18.7539 4.28121L20.1571 2.87806L20.1571 2.87806L18.7539 4.28121ZM13.8447 0.292178L13.2315 2.17941L13.2315 2.17941L13.8447 0.292178ZM10.1553 0.292178L9.54206 -1.59506L10.1553 0.292178ZM5.24606 4.28121L3.84291 2.87806V2.87806L5.24606 4.28121ZM4.28121 5.24606L5.68436 6.64921V6.64921L4.28121 5.24606ZM0.292178 10.1553L2.17941 10.7685L2.17941 10.7685L0.292178 10.1553ZM0.292178 13.8447L2.17941 13.2315L2.17941 13.2315L0.292178 13.8447ZM4.28121 18.7539L5.68436 17.3508L5.68436 17.3508L4.28121 18.7539ZM5.24606 19.7188L3.84291 21.1219L3.84291 21.1219L5.24606 19.7188ZM10.1553 23.7078L9.54206 25.5951L10.1553 23.7078ZM13.8447 23.7078L13.2315 21.8206L13.2315 21.8206L13.8447 23.7078ZM18.7539 19.7188L20.1571 21.1219L20.1571 21.1219L18.7539 19.7188ZM19.7188 18.7539L18.3156 17.3508L18.3156 17.3508L19.7188 18.7539ZM23.7078 13.8447L25.5951 14.4579L23.7078 13.8447ZM18.3156 6.64921C19.5208 7.85442 20.3393 8.67502 20.921 9.36029C21.4877 10.0278 21.7123 10.4353 21.8206 10.7685L25.5951 9.54206C25.2604 8.51218 24.6726 7.64709 23.9465 6.79182C23.2355 5.95427 22.2808 5.00181 21.1219 3.84291L18.3156 6.64921ZM17.3508 5.68436L18.3156 6.64921L21.1219 3.84291L20.1571 2.87806L17.3508 5.68436ZM13.2315 2.17941C13.5647 2.28767 13.9722 2.51229 14.6397 3.07899C15.325 3.66074 16.1456 4.47916 17.3508 5.68436L20.1571 2.87806C18.9982 1.71916 18.0457 0.76451 17.2082 0.0534839C16.3529 -0.672584 15.4878 -1.26043 14.4579 -1.59506L13.2315 2.17941ZM10.7685 2.17941C11.5689 1.91934 12.4311 1.91934 13.2315 2.17941L14.4579 -1.59506C12.8604 -2.11412 11.1396 -2.11412 9.54206 -1.59506L10.7685 2.17941ZM6.64921 5.68436C7.85442 4.47916 8.67502 3.66074 9.36029 3.07899C10.0278 2.51229 10.4353 2.28767 10.7685 2.17941L9.54206 -1.59506C8.51218 -1.26043 7.64709 -0.672585 6.79182 0.0534829C5.95427 0.764509 5.0018 1.71916 3.84291 2.87806L6.64921 5.68436ZM5.68436 6.64921L6.64921 5.68436L3.84291 2.87806L2.87806 3.84291L5.68436 6.64921ZM2.17941 10.7685C2.28767 10.4353 2.51229 10.0278 3.07899 9.36028C3.66074 8.67502 4.47916 7.85442 5.68436 6.64921L2.87806 3.84291C1.71916 5.0018 0.764509 5.95427 0.0534831 6.79182C-0.672585 7.64709 -1.26043 8.51218 -1.59506 9.54206L2.17941 10.7685ZM2.17941 13.2315C1.91934 12.4311 1.91934 11.5689 2.17941 10.7685L-1.59506 9.54206C-2.11412 11.1396 -2.11412 12.8604 -1.59506 14.4579L2.17941 13.2315ZM5.68436 17.3508C4.47916 16.1456 3.66074 15.325 3.07899 14.6397C2.51229 13.9722 2.28767 13.5647 2.17941 13.2315L-1.59506 14.4579C-1.26043 15.4878 -0.672585 16.3529 0.0534826 17.2082C0.764508 18.0457 1.71916 18.9982 2.87806 20.1571L5.68436 17.3508ZM6.64921 18.3156L5.68436 17.3508L2.87806 20.1571L3.84291 21.1219L6.64921 18.3156ZM10.7685 21.8206C10.4353 21.7123 10.0278 21.4877 9.36028 20.921C8.67502 20.3393 7.85441 19.5208 6.64921 18.3156L3.84291 21.1219C5.0018 22.2808 5.95427 23.2355 6.79182 23.9465C7.64709 24.6726 8.51218 25.2604 9.54206 25.5951L10.7685 21.8206ZM13.2315 21.8206C12.4311 22.0807 11.5689 22.0807 10.7685 21.8206L9.54206 25.5951C11.1396 26.1141 12.8604 26.1141 14.4579 25.5951L13.2315 21.8206ZM17.3508 18.3156C16.1456 19.5208 15.325 20.3393 14.6397 20.921C13.9722 21.4877 13.5647 21.7123 13.2315 21.8206L14.4579 25.5951C15.4878 25.2604 16.3529 24.6726 17.2082 23.9465C18.0457 23.2355 18.9982 22.2808 20.1571 21.1219L17.3508 18.3156ZM18.3156 17.3508L17.3508 18.3156L20.1571 21.1219L21.1219 20.1571L18.3156 17.3508ZM21.8206 13.2315C21.7123 13.5647 21.4877 13.9722 20.921 14.6397C20.3393 15.325 19.5208 16.1456 18.3156 17.3508L21.1219 20.1571C22.2808 18.9982 23.2355 18.0457 23.9465 17.2082C24.6726 16.3529 25.2604 15.4878 25.5951 14.4579L21.8206 13.2315ZM21.8206 10.7685C22.0807 11.5689 22.0807 12.4311 21.8206 13.2315L25.5951 14.4579C26.1141 12.8604 26.1141 11.1396 25.5951 9.54206L21.8206 10.7685Z" fill="#00B956" mask="url(#path-1-inside-1)"/>
<path d="M23.4762 5.42259C24.2553 4.64344 24.2553 3.38018 23.4762 2.60103C22.697 1.82188 21.4338 1.82188 20.6546 2.60103L12.0358 11.2199L9.43473 8.6188C8.65558 7.83965 7.39233 7.83965 6.61318 8.6188C5.83403 9.39795 5.83403 10.6612 6.61318 11.4403L10.625 15.4522C11.4042 16.2313 12.6674 16.2313 13.4466 15.4522L23.4762 5.42259Z" fill="#1939DE" stroke="white" stroke-width="1.98436" stroke-linecap="round" stroke-linejoin="round"/>
</svg>
